# xmcd
#
# Track frame offsets:
#	150
#	11297
#	24502
#	35035
#	46567
#	57220
#	68160
#	80625
#	93785
#	107347
#	116717
#	127407
#	136902
#	149652
#	161912
#	174552
#	187562
#	198495
#	214325
#
# Disc length: 3120
#
# Revision: 3
# Processed by: cddbd v1.5.1PL0 Copyright (c) Steve Scherf et al.
# Submitted via: OrangeCD 5.1
# Normalized: r2:DSETVAR1
#
DISCID=090c2e13
DTITLE=Various Artist - Country Music's Golden Hit Parade [CD 3)
DYEAR=1992
DGENRE=Country
TTITLE0=Pat Boone - Walking The Floor Over You
TTITLE1=Tennessee Ernie Ford - The Ballad Of Davy Crocket
TTITLE2=The Everly Brothers - Bye Bye Love
TTITLE3=George Hamilton IV - Why Don't They Understand
TTITLE4=Slim Whitman - Tumbling Tumbleweeds
TTITLE5=Conway Twitty - Mona Lisa
TTITLE6=Jim Reeves - I Love You Because
TTITLE7=Marty Robbins - Devil Woman
TTITLE8=Patsy Cline - She's Got You
TTITLE9=Frankie Laine - Rawhide
TTITLE10=The Statler Brothers - Flowers On The Wall
TTITLE11=Burl Ives - A Little Bitty Tear
TTITLE12=Walter Brennan - Old Rivers
TTITLE13=Eddy Arnold - Make The World Go Away
TTITLE14=Roy Orbison - Too Soon To Know
TTITLE15=Johnny Tillotson - Talk Back Trembling Lips
TTITLE16=Hank Locklin - Please Help Me I'm Falling
TTITLE17=Roy Clark - Yesterday When I Was Young
TTITLE18=Marty Robbins - El Paso
EXTD=
EXTT0=Pat Boone\n
EXTT1=Tennessee Ernie Ford\n
EXTT2=The Everly Brothers\n
EXTT3=George Hamilton IV\n
EXTT4=Slim Whitman\n
EXTT5=Conway Twitty\n
EXTT6=Jim Reeves\n
EXTT7=Marty Robbins\n
EXTT8=Patsy Cline\n
EXTT9=Frankie Laine\n
EXTT10=The Slatler Brothers\n
EXTT11=Burl Ives\n
EXTT12=Walter Brennan\n
EXTT13=Eddy Arnold\n
EXTT14=Roy Orbison\n
EXTT15=Johnny Tilloston\n
EXTT16=Hank Locklin\n
EXTT17=Roy Clark\n
EXTT18=Marty Robbins\n
PLAYORDER=
